<svg xmlns="http://www.w3.org/2000/svg" width="150" height="430" viewBox="0 0 150 430" fill="none" stroke="#74505F" stroke-width="1.5" stroke-linecap="round" stroke-linejoin="round"><path d="M 75 424 C 82 276.08 68 165.14 75 54.2"/><g transform="translate(75 54.2)"><ellipse cx="0" cy="-9.3" rx="4.5" ry="7.5" transform="rotate(12)"/><ellipse cx="0" cy="-9.3" rx="4.5" ry="7.5" transform="rotate(72)"/><ellipse cx="0" cy="-9.3" rx="4.5" ry="7.5" transform="rotate(132)"/><ellipse cx="0" cy="-9.3" rx="4.5" ry="7.5" transform="rotate(192)"/><ellipse cx="0" cy="-9.3" rx="4.5" ry="7.5" transform="rotate(252)"/><ellipse cx="0" cy="-9.3" rx="4.5" ry="7.5" transform="rotate(312)"/><circle cx="0" cy="0" r="2.7"/></g><g transform="translate(75 286.4) rotate(42)"><path d="M 0 0 C 15 -15.75 15 -32.4 0 -45 C -15 -32.4 -15 -15.75 0 0 Z"/><line x1="0" y1="0" x2="0" y2="-45"/></g><g transform="translate(75 200.4) rotate(-38)"><path d="M 0 0 C 13.5 -13.65 13.5 -28.08 0 -39 C -13.5 -28.08 -13.5 -13.65 0 0 Z"/><line x1="0" y1="0" x2="0" y2="-39"/></g><path d="M 39 424 C 33 320.8 45 243.4 39 166"/><g transform="translate(39 166) rotate(-14)"><path d="M -9.72 0 C -9.72 11.18 -5.35 15.52 0 15.52 C 5.35 15.52 9.72 11.18 9.72 0 C 4.86 -5.28 -4.86 -5.28 -9.72 0 Z"/></g><g transform="translate(39 320.8) rotate(-50)"><path d="M 0 0 C 12 -12.6 12 -25.92 0 -36 C -12 -25.92 -12 -12.6 0 0 Z"/><line x1="0" y1="0" x2="0" y2="-36"/></g><path d="M 114 424 C 120 303.6 108 213.3 114 123"/><g transform="translate(114 123)"><line x1="0" y1="0" x2="-17.22" y2="-9.15"/><circle cx="-17.22" cy="-9.15" r="2.54"/><line x1="0" y1="0" x2="-12.88" y2="-14.64"/><circle cx="-12.88" cy="-14.64" r="2.54"/><line x1="0" y1="0" x2="-6.88" y2="-18.25"/><circle cx="-6.88" cy="-18.25" r="2.54"/><line x1="0" y1="0" x2="0" y2="-19.5"/><circle cx="0" cy="-19.5" r="2.54"/><line x1="0" y1="0" x2="6.88" y2="-18.25"/><circle cx="6.88" cy="-18.25" r="2.54"/><line x1="0" y1="0" x2="12.88" y2="-14.64"/><circle cx="12.88" cy="-14.64" r="2.54"/><line x1="0" y1="0" x2="17.22" y2="-9.15"/><circle cx="17.22" cy="-9.15" r="2.54"/></g><g transform="translate(114 295) rotate(52)"><path d="M 0 0 C 12 -11.55 12 -23.76 0 -33 C -12 -23.76 -12 -11.55 0 0 Z"/><line x1="0" y1="0" x2="0" y2="-33"/></g><path d="M 87 424 C 83 351.76 91 297.58 87 243.4"/><g transform="translate(87 243.4)"><ellipse cx="0" cy="-6.51" rx="3.15" ry="5.25" transform="rotate(-20)"/><ellipse cx="0" cy="-6.51" rx="3.15" ry="5.25" transform="rotate(52)"/><ellipse cx="0" cy="-6.51" rx="3.15" ry="5.25" transform="rotate(124)"/><ellipse cx="0" cy="-6.51" rx="3.15" ry="5.25" transform="rotate(196)"/><ellipse cx="0" cy="-6.51" rx="3.15" ry="5.25" transform="rotate(268)"/><circle cx="0" cy="0" r="1.89"/></g></svg>